Format : AVI
Format/Info : Audio Video Interleave
File size : 700 MiB
Duration : 1h 48mn
Overall bit rate : 904 Kbps
Writing application : VirtualDubMod 1.5.4.1 (build 2178/release)
Writing library : VirtualDubMod build 2178/release

Video
ID : 0
Format : MPEG-4 Visual
Format settings, BVOP : Yes
Format settings, QPel : No
Format settings, GMC : No warppoints
Format settings, Matrix : Default (H.263)
Muxing mode : Packed bitstream
Codec ID : DX50
Codec ID/Hint : DivX 5
Duration : 1h 48mn
Bit rate : 769 Kbps
Width : 640 pixels
Height : 272 pixels
Display aspect ratio : 2.35:1
Frame rate : 25.000 fps
Resolution : 24 bits
Colorimetry : 4:2:0
Scan type : Progressive
Bits/(Pixel*Frame) : 0.177
Stream size : 596 MiB (85%)
Writing library : DivX 6.8.4

Audio
ID : 1
Format : MPEG Audio
Format version : Version 1
Format profile : Layer 3
Codec ID : 55
Codec ID/Hint : MP3
Duration : 1h 48mn
Bit rate mode : Constant
Bit rate : 128 Kbps
Channel(s) : 2 channels
Sampling rate : 48.0 KHz
Resolution : 16 bits
Stream size : 99.1 MiB (14%)
Alignment : Aligned on interleaves
Interleave, duration : 80 ms (2.00 video frames)
Interleave, preload duration : 504 ms
Writing library : LAME3.98r
Encoding settings : -m j -V 4 -q 2 -lowpass 17 -b 128
Language : English

Starring
James Marsden
Giovanni Ribisi
Brad Renfro
Piper Perabo
Dash Mihok
Lesley Ann Warren
with Dennis Hopper
and Brian Dennehy
and Val Kilmer

Tommy, the sole member of his family who is not involved in crime, returns home after serving as a Marine in Operation Desert Storm. Tommy had entered the war with enthusiasm but became disillusioned when the conflict ended with Saddam Hussein still in power. Disenchanted with military service, Tommy beat up an MP, stole a colonel's Jeep, and ended up serving time in the brig.
In Philadelphia, he rooms with his aunt Tina and exerts a good influence on Vincent, his slow younger brother.
 
http://www.imdb.com/title/tt0360323/

screens
 
http://img820.imageshack.us/img820/1145/10wolfdivxviceavisnapsh.jpg 
http://img26.imageshack.us/img26/1145/10wolfdivxviceavisnapsh.jpg 
http://img19.imageshack.us/img19/1145/10wolfdivxviceavisnapsh.jpg 
http://img337.imageshack.us/img337/1145/10wolfdivxviceavisnapsh.jpg